<svg id="visual" viewBox="0 0 1900 1900" width="1900" height="1900" xmlns="http://www.w3.org/2000/svg" xmlns:xlink="http://www.w3.org/1999/xlink" version="1.1"><rect x="0" y="0" width="1900" height="1900" fill="#ffffff"></rect><path d="M0 488L45.2 475.5C90.3 463 180.7 438 271.2 419.8C361.7 401.7 452.3 390.3 542.8 404C633.3 417.7 723.7 456.3 814.2 462.7C904.7 469 995.3 443 1085.8 423.7C1176.3 404.3 1266.7 391.7 1357.2 399.8C1447.7 408 1538.3 437 1628.8 456.3C1719.3 475.7 1809.7 485.3 1854.8 490.2L1900 495L1900 0L1854.8 0C1809.7 0 1719.3 0 1628.8 0C1538.3 0 1447.7 0 1357.2 0C1266.7 0 1176.3 0 1085.8 0C995.3 0 904.7 0 814.2 0C723.7 0 633.3 0 542.8 0C452.3 0 361.7 0 271.2 0C180.7 0 90.3 0 45.2 0L0 0Z" fill="#7996ff"></path><path d="M0 392L45.2 380.7C90.3 369.3 180.7 346.7 271.2 344.7C361.7 342.7 452.3 361.3 542.8 362C633.3 362.7 723.7 345.3 814.2 331.5C904.7 317.7 995.3 307.3 1085.8 302C1176.3 296.7 1266.7 296.3 1357.2 299.8C1447.7 303.3 1538.3 310.7 1628.8 319.3C1719.3 328 1809.7 338 1854.8 343L1900 348L1900 0L1854.8 0C1809.7 0 1719.3 0 1628.8 0C1538.3 0 1447.7 0 1357.2 0C1266.7 0 1176.3 0 1085.8 0C995.3 0 904.7 0 814.2 0C723.7 0 633.3 0 542.8 0C452.3 0 361.7 0 271.2 0C180.7 0 90.3 0 45.2 0L0 0Z" fill="#6888ff"></path><path d="M0 269L45.2 274.5C90.3 280 180.7 291 271.2 287.7C361.7 284.3 452.3 266.7 542.8 261.2C633.3 255.7 723.7 262.3 814.2 263.8C904.7 265.3 995.3 261.7 1085.8 260C1176.3 258.3 1266.7 258.7 1357.2 264.2C1447.7 269.7 1538.3 280.3 1628.8 289.7C1719.3 299 1809.7 307 1854.8 311L1900 315L1900 0L1854.8 0C1809.7 0 1719.3 0 1628.8 0C1538.3 0 1447.7 0 1357.2 0C1266.7 0 1176.3 0 1085.8 0C995.3 0 904.7 0 814.2 0C723.7 0 633.3 0 542.8 0C452.3 0 361.7 0 271.2 0C180.7 0 90.3 0 45.2 0L0 0Z" fill="#577aff"></path><path d="M0 178L45.2 172.7C90.3 167.3 180.7 156.7 271.2 150.3C361.7 144 452.3 142 542.8 145.7C633.3 149.3 723.7 158.7 814.2 172.2C904.7 185.7 995.3 203.3 1085.8 204.3C1176.3 205.3 1266.7 189.7 1357.2 182.5C1447.7 175.3 1538.3 176.7 1628.8 178.8C1719.3 181 1809.7 184 1854.8 185.5L1900 187L1900 0L1854.8 0C1809.7 0 1719.3 0 1628.8 0C1538.3 0 1447.7 0 1357.2 0C1266.7 0 1176.3 0 1085.8 0C995.3 0 904.7 0 814.2 0C723.7 0 633.3 0 542.8 0C452.3 0 361.7 0 271.2 0C180.7 0 90.3 0 45.2 0L0 0Z" fill="#456bfe"></path><path d="M0 72L45.2 73.8C90.3 75.7 180.7 79.3 271.2 85C361.7 90.7 452.3 98.3 542.8 96.7C633.3 95 723.7 84 814.2 85C904.7 86 995.3 99 1085.8 99.8C1176.3 100.7 1266.7 89.3 1357.2 85.8C1447.7 82.3 1538.3 86.7 1628.8 88.2C1719.3 89.7 1809.7 88.3 1854.8 87.7L1900 87L1900 0L1854.8 0C1809.7 0 1719.3 0 1628.8 0C1538.3 0 1447.7 0 1357.2 0C1266.7 0 1176.3 0 1085.8 0C995.3 0 904.7 0 814.2 0C723.7 0 633.3 0 542.8 0C452.3 0 361.7 0 271.2 0C180.7 0 90.3 0 45.2 0L0 0Z" fill="#315cfd"></path></svg>