<svg id="visual" viewBox="0 0 1920 1920" width="1920" height="1920" xmlns="http://www.w3.org/2000/svg" xmlns:xlink="http://www.w3.org/1999/xlink" version="1.1"><rect x="0" y="0" width="1920" height="1920" fill="#ffffff"></rect><path d="M0 1545L32 1554.7C64 1564.3 128 1583.7 192 1570.2C256 1556.7 320 1510.3 384 1493.2C448 1476 512 1488 576 1515.8C640 1543.7 704 1587.3 768 1593.7C832 1600 896 1569 960 1544.7C1024 1520.3 1088 1502.7 1152 1493.5C1216 1484.3 1280 1483.7 1344 1511.7C1408 1539.7 1472 1596.3 1536 1636.7C1600 1677 1664 1701 1728 1671.5C1792 1642 1856 1559 1888 1517.5L1920 1476L1920 0L1888 0C1856 0 1792 0 1728 0C1664 0 1600 0 1536 0C1472 0 1408 0 1344 0C1280 0 1216 0 1152 0C1088 0 1024 0 960 0C896 0 832 0 768 0C704 0 640 0 576 0C512 0 448 0 384 0C320 0 256 0 192 0C128 0 64 0 32 0L0 0Z" fill="#0d2c9c"></path><path d="M0 1112L32 1134.2C64 1156.3 128 1200.7 192 1201.3C256 1202 320 1159 384 1167.8C448 1176.7 512 1237.3 576 1284.3C640 1331.3 704 1364.7 768 1329.5C832 1294.3 896 1190.7 960 1146.2C1024 1101.7 1088 1116.3 1152 1161.5C1216 1206.7 1280 1282.3 1344 1287.7C1408 1293 1472 1228 1536 1189.5C1600 1151 1664 1139 1728 1148.3C1792 1157.7 1856 1188.3 1888 1203.7L1920 1219L1920 0L1888 0C1856 0 1792 0 1728 0C1664 0 1600 0 1536 0C1472 0 1408 0 1344 0C1280 0 1216 0 1152 0C1088 0 1024 0 960 0C896 0 832 0 768 0C704 0 640 0 576 0C512 0 448 0 384 0C320 0 256 0 192 0C128 0 64 0 32 0L0 0Z" fill="#1837b3"></path><path d="M0 1030L32 1007C64 984 128 938 192 898.7C256 859.3 320 826.7 384 811.7C448 796.7 512 799.3 576 840.2C640 881 704 960 768 974.7C832 989.3 896 939.7 960 918.8C1024 898 1088 906 1152 892.5C1216 879 1280 844 1344 855.2C1408 866.3 1472 923.7 1536 962.5C1600 1001.3 1664 1021.7 1728 1011.2C1792 1000.7 1856 959.3 1888 938.7L1920 918L1920 0L1888 0C1856 0 1792 0 1728 0C1664 0 1600 0 1536 0C1472 0 1408 0 1344 0C1280 0 1216 0 1152 0C1088 0 1024 0 960 0C896 0 832 0 768 0C704 0 640 0 576 0C512 0 448 0 384 0C320 0 256 0 192 0C128 0 64 0 32 0L0 0Z" fill="#2243cb"></path><path d="M0 724L32 711.2C64 698.3 128 672.7 192 652.2C256 631.7 320 616.3 384 604.5C448 592.7 512 584.3 576 596.8C640 609.3 704 642.7 768 628.7C832 614.7 896 553.3 960 559.2C1024 565 1088 638 1152 676.7C1216 715.3 1280 719.7 1344 704.8C1408 690 1472 656 1536 663.8C1600 671.7 1664 721.3 1728 732.2C1792 743 1856 715 1888 701L1920 687L1920 0L1888 0C1856 0 1792 0 1728 0C1664 0 1600 0 1536 0C1472 0 1408 0 1344 0C1280 0 1216 0 1152 0C1088 0 1024 0 960 0C896 0 832 0 768 0C704 0 640 0 576 0C512 0 448 0 384 0C320 0 256 0 192 0C128 0 64 0 32 0L0 0Z" fill="#2a4fe4"></path><path d="M0 184L32 200.5C64 217 128 250 192 282.2C256 314.3 320 345.7 384 356.8C448 368 512 359 576 335.8C640 312.7 704 275.3 768 252.3C832 229.3 896 220.7 960 253.2C1024 285.7 1088 359.3 1152 373.5C1216 387.7 1280 342.3 1344 312.5C1408 282.7 1472 268.3 1536 287.5C1600 306.7 1664 359.3 1728 356.5C1792 353.7 1856 295.3 1888 266.2L1920 237L1920 0L1888 0C1856 0 1792 0 1728 0C1664 0 1600 0 1536 0C1472 0 1408 0 1344 0C1280 0 1216 0 1152 0C1088 0 1024 0 960 0C896 0 832 0 768 0C704 0 640 0 576 0C512 0 448 0 384 0C320 0 256 0 192 0C128 0 64 0 32 0L0 0Z" fill="#315cfd"></path></svg>