<svg id="visual" viewBox="0 0 1900 1900" width="1900" height="1900" xmlns="http://www.w3.org/2000/svg" xmlns:xlink="http://www.w3.org/1999/xlink" version="1.1"><rect x="0" y="0" width="1900" height="1900" fill="#ffffff"></rect><path d="M0 325L45.2 316.7C90.3 308.3 180.7 291.7 271.2 279.5C361.7 267.3 452.3 259.7 542.8 268.8C633.3 278 723.7 304 814.2 308.3C904.7 312.7 995.3 295.3 1085.8 282.3C1176.3 269.3 1266.7 260.7 1357.2 266C1447.7 271.3 1538.3 290.7 1628.8 303.7C1719.3 316.7 1809.7 323.3 1854.8 326.7L1900 330L1900 0L1854.8 0C1809.7 0 1719.3 0 1628.8 0C1538.3 0 1447.7 0 1357.2 0C1266.7 0 1176.3 0 1085.8 0C995.3 0 904.7 0 814.2 0C723.7 0 633.3 0 542.8 0C452.3 0 361.7 0 271.2 0C180.7 0 90.3 0 45.2 0L0 0Z" fill="#7996ff"></path><path d="M0 261L45.2 253.5C90.3 246 180.7 231 271.2 229.7C361.7 228.3 452.3 240.7 542.8 241.2C633.3 241.7 723.7 230.3 814.2 221.2C904.7 212 995.3 205 1085.8 201.3C1176.3 197.7 1266.7 197.3 1357.2 199.7C1447.7 202 1538.3 207 1628.8 212.7C1719.3 218.3 1809.7 224.7 1854.8 227.8L1900 231L1900 0L1854.8 0C1809.7 0 1719.3 0 1628.8 0C1538.3 0 1447.7 0 1357.2 0C1266.7 0 1176.3 0 1085.8 0C995.3 0 904.7 0 814.2 0C723.7 0 633.3 0 542.8 0C452.3 0 361.7 0 271.2 0C180.7 0 90.3 0 45.2 0L0 0Z" fill="#6888ff"></path><path d="M0 179L45.2 182.7C90.3 186.3 180.7 193.7 271.2 191.5C361.7 189.3 452.3 177.7 542.8 174C633.3 170.3 723.7 174.7 814.2 175.7C904.7 176.7 995.3 174.3 1085.8 173.2C1176.3 172 1266.7 172 1357.2 175.7C1447.7 179.3 1538.3 186.7 1628.8 192.8C1719.3 199 1809.7 204 1854.8 206.5L1900 209L1900 0L1854.8 0C1809.7 0 1719.3 0 1628.8 0C1538.3 0 1447.7 0 1357.2 0C1266.7 0 1176.3 0 1085.8 0C995.3 0 904.7 0 814.2 0C723.7 0 633.3 0 542.8 0C452.3 0 361.7 0 271.2 0C180.7 0 90.3 0 45.2 0L0 0Z" fill="#577aff"></path><path d="M0 118L45.2 114.5C90.3 111 180.7 104 271.2 99.8C361.7 95.7 452.3 94.3 542.8 96.7C633.3 99 723.7 105 814.2 114C904.7 123 995.3 135 1085.8 135.8C1176.3 136.7 1266.7 126.3 1357.2 121.5C1447.7 116.7 1538.3 117.3 1628.8 118.8C1719.3 120.3 1809.7 122.7 1854.8 123.8L1900 125L1900 0L1854.8 0C1809.7 0 1719.3 0 1628.8 0C1538.3 0 1447.7 0 1357.2 0C1266.7 0 1176.3 0 1085.8 0C995.3 0 904.7 0 814.2 0C723.7 0 633.3 0 542.8 0C452.3 0 361.7 0 271.2 0C180.7 0 90.3 0 45.2 0L0 0Z" fill="#456bfe"></path><path d="M0 48L45.2 49.2C90.3 50.3 180.7 52.7 271.2 56.5C361.7 60.3 452.3 65.7 542.8 64.5C633.3 63.3 723.7 55.7 814.2 56.2C904.7 56.7 995.3 65.3 1085.8 66C1176.3 66.7 1266.7 59.3 1357.2 57.2C1447.7 55 1538.3 58 1628.8 59C1719.3 60 1809.7 59 1854.8 58.5L1900 58L1900 0L1854.8 0C1809.7 0 1719.3 0 1628.8 0C1538.3 0 1447.7 0 1357.2 0C1266.7 0 1176.3 0 1085.8 0C995.3 0 904.7 0 814.2 0C723.7 0 633.3 0 542.8 0C452.3 0 361.7 0 271.2 0C180.7 0 90.3 0 45.2 0L0 0Z" fill="#315cfd"></path></svg>